<?xml version="1.0" encoding="utf-8"?>
<!-- Svg Vector Icons : http://www.onlinewebfonts.com/icon -->
<!DOCTYPE svg PUBLIC "-//W3C//DTD SVG 1.1//EN" "http://www.w3.org/Graphics/SVG/1.1/DTD/svg11.dtd">
<svg version="1.1" xmlns="http://www.w3.org/2000/svg" xmlns:xlink="http://www.w3.org/1999/xlink" x="0px" y="0px" viewBox="0 0 1000 1000" enable-background="new 0 0 1000 1000" xml:space="preserve">
<metadata> Svg Vector Icons : http://www.onlinewebfonts.com/icon </metadata>
<g><g transform="translate(0.000000,511.000000) scale(0.100000,-0.100000)"><path d="M3591.5,4995.3c-222.9-45-617.7-282.3-1043.2-627.9c-276.1-225-924.5-873.4-1149.5-1149.5c-362-445.9-587-824.3-630-1065.7c-14.3-77.7-18.4-1075.9-14.3-2986.3c4.1-2697.9,8.2-2879.9,43-2994.5c106.4-353.8,374.3-675,687.3-824.3c306.8-145.2,135-137,2873.8-137c2337.9,0,2483.1,2,2607.9,36.8c439.8,124.8,816.1,499.1,928.6,924.5c18.4,67.5,38.8,245.4,47,394.8l12.3,270h-327.3h-329.3l-8.2-259.8c-6.1-225-14.3-274.1-55.2-353.9c-63.4-124.8-175.9-237.2-298.6-302.7l-102.3-55.2l-2462.7-6.1l-2462.7-4.1l-114.5,51.1c-141.1,65.5-253.6,171.8-325.2,306.8l-55.2,102.3L1407-809.6l-4.1,2877.9l597.3,10.2c666.8,10.2,732.3,20.5,987.9,153.4c194.3,100.2,445.9,351.8,546.1,546.1c133,255.7,143.2,321.1,153.4,987.9l10.2,597.3l1568.8-4.1l1566.8-6.1l102.3-55.2c135-71.6,241.4-184.1,304.8-323.2l53.2-112.5v-1712v-1714h327.3h329.3l-8.2,1744.7c-6.1,1937,2,1812.2-149.3,2121.1c-100.2,202.5-345.7,450-550.2,556.4c-296.6,153.4-204.6,147.3-1973.8,151.4C4389.2,5011.7,3642.6,5005.5,3591.5,4995.3z"/><path d="M3204.9,76.1c-143.2-38.8-227-90-327.3-204.5c-153.4-175.9-155.5-184.1-155.5-1235.4c0-1090.2-2.1-1073.8,192.3-1270.2c210.7-208.6-65.4-192.3,3070.1-192.3c3135.6,0,2859.5-16.4,3070.1,192.3c194.3,196.4,192.3,180,192.3,1270.2S9249-290,9054.7-93.7C8844.1,117,9128.4,98.6,6025.5,102.7C3699.9,106.8,3299,102.7,3204.9,76.1z M4393.3-568.2c159.5-32.7,349.8-130.9,425.4-216.8c36.8-40.9,92-126.8,120.7-190.2c49.1-102.3,53.2-135,53.2-378.4c0-249.5-4.1-274.1-59.3-392.7c-63.4-139.1-182-263.9-317-331.4c-171.8-87.9-290.5-104.3-783.4-104.3h-466.3v818.2v818.2h460.2C4082.4-545.7,4331.9-555.9,4393.3-568.2z M6356.9-568.2c159.5-32.7,349.8-130.9,425.4-216.8c36.8-40.9,92-126.8,120.7-190.2c49.1-102.3,53.2-135,53.2-378.4c0-247.5-4.1-274.1-57.3-388.6c-100.2-214.8-261.8-341.6-519.5-409.1c-87.9-22.5-235.2-30.7-582.9-30.7h-466.4v818.2v818.2h460.2C6046-545.7,6295.5-555.9,6356.9-568.2z M8167-576.4c173.9-51.1,345.7-202.5,357.9-315c6.1-45-6.1-51.1-120.7-77.7l-126.8-28.6l-87.9,90c-75.7,77.7-104.3,94.1-194.3,106.4c-284.3,36.8-523.6-98.2-429.5-243.4c38.9-59.3,130.9-94.1,443.9-165.7c460.2-108.4,607.5-237.3,589.1-513.4c-12.3-180-83.9-280.2-270-376.3c-141.1-71.6-143.2-71.6-409.1-71.6c-251.6,0-276.1,4.1-390.7,57.3c-147.3,69.6-182,100.2-259.8,216.8c-85.9,137.1-79.8,153.4,81.8,192.3c124.8,30.7,139.1,30.7,157.5,2c104.3-165.7,202.5-216.8,419.3-216.8c114.5,0,182.1,10.2,249.5,40.9c186.1,81.8,186.1,233.2,2,329.3c-24.6,12.3-161.6,51.1-304.8,83.9c-143.2,34.8-302.7,81.8-353.9,104.3c-237.2,104.3-327.3,312.9-227,519.5c65.4,137,147.3,206.6,306.8,261.8C7721.1-537.5,8030-535.5,8167-576.4z"/><path d="M3693.7-1363.9v-552.3h272c313,0,448,30.7,554.3,124.8c92,79.8,141.1,225,141.1,425.4c0,208.6-34.8,321.1-126.8,413.2c-108.4,110.5-235.2,141.1-568.6,141.1h-272V-1363.9z"/><path d="M5657.3-1363.9v-552.3h272c312.9,0,447.9,30.7,554.3,124.8c92.1,79.8,141.1,225,141.1,425.4c0,208.6-34.8,321.1-126.8,413.2c-108.4,110.5-235.2,141.1-568.6,141.1h-272V-1363.9z"/></g></g>
</svg>