<?xml version="1.0" encoding="utf-8"?>
<!-- Svg Vector Icons : http://www.onlinewebfonts.com/icon -->
<!DOCTYPE svg PUBLIC "-//W3C//DTD SVG 1.1//EN" "http://www.w3.org/Graphics/SVG/1.1/DTD/svg11.dtd">
<svg version="1.1" xmlns="http://www.w3.org/2000/svg" xmlns:xlink="http://www.w3.org/1999/xlink" x="0px" y="0px" viewBox="0 0 1000 1000" enable-background="new 0 0 1000 1000" xml:space="preserve">
<metadata> Svg Vector Icons : http://www.onlinewebfonts.com/icon </metadata>
<g><g transform="translate(0.000000,511.000000) scale(0.100000,-0.100000)"><path d="M3591.5,4995.3c-222.9-45-617.7-282.3-1043.2-627.9c-276.1-225-924.5-873.4-1149.5-1149.5c-362-445.9-587-824.3-630-1065.7c-14.3-77.7-18.4-1075.9-14.3-2986.3c4.1-2697.9,8.2-2879.9,43-2994.5c106.4-353.8,374.3-675,687.3-824.3c306.8-145.2,135-137,2873.8-137c2337.9,0,2483.1,2,2607.9,36.8c439.8,124.8,816.1,499.1,928.6,924.5c18.4,67.5,38.8,245.4,47,394.8l12.3,270h-327.3h-329.3l-8.2-259.8c-6.1-225-14.3-274.1-55.2-353.9c-63.4-124.8-175.9-237.2-298.6-302.7l-102.3-55.2l-2462.7-6.1l-2462.7-4.1l-114.5,51.1c-141.1,65.5-253.6,171.8-325.2,306.8l-55.2,102.3L1407-809.6l-4.1,2877.9l597.3,10.2c666.8,10.2,732.3,20.5,987.9,153.4c194.3,100.2,445.9,351.8,546.1,546.1c133,255.7,143.2,321.1,153.4,987.9l10.2,597.3l1568.8-4.1l1566.8-6.1l102.3-55.2c135-71.6,241.4-184.1,304.8-323.2l53.2-112.5v-1712v-1714h327.3h329.3l-8.2,1744.7c-6.1,1937,2,1812.2-149.3,2121.1c-100.2,202.5-345.7,450-550.2,556.4c-296.6,153.4-204.6,147.3-1973.8,151.4C4389.2,5011.7,3642.6,5005.5,3591.5,4995.3z"/><path d="M3204.9,76.1c-143.2-38.8-227-90-327.3-204.5c-153.4-175.9-155.5-184.1-155.5-1235.4c0-1090.2-2.1-1073.8,192.3-1270.2c210.7-208.6-65.4-192.3,3070.1-192.3c3135.6,0,2859.5-16.4,3070.1,192.3c194.3,196.4,192.3,180,192.3,1270.2S9249-290,9054.7-93.7C8844.1,117,9128.4,98.6,6025.5,102.7C3699.9,106.8,3299,102.7,3204.9,76.1z M4327.8-1363.9V-2182h-153.4H4021v818.2v818.2h153.4h153.4V-1363.9z M5821-578.4c200.4-59.3,321.1-163.6,421.3-357.9c26.6-55.2,49.1-102.3,49.1-106.3c0-6.2-55.2-20.5-124.8-32.7c-69.6-14.3-137-30.7-151.4-34.8c-16.4-6.1-42.9,26.6-71.6,81.8c-77.7,163.6-206.6,237.3-411.1,237.3c-247.5,0-452.1-135-511.4-339.6c-42.9-147.3-32.7-388.6,20.5-511.3c92-208.6,216.8-282.3,474.5-284.3c159.5,0,184.1,6.1,274.1,61.4c90,55.2,178,173.9,218.9,296.6c6.1,20.4,36.8,18.4,147.3-6.1c75.7-16.4,143.2-36.8,149.3-43c20.5-20.4-57.3-194.3-124.8-284.3C6039.8-2090,5823-2182,5536.7-2182c-304.8,2-513.4,79.8-666.8,251.6c-143.2,157.5-184.1,284.3-184.1,576.8c0,210.7,6.1,259.8,45,343.6c98.2,212.7,241.4,337.5,474.5,417.3C5373-535.5,5655.3-529.3,5821-578.4z M7289.6-1112.3l351.8-566.6v566.6v566.6h153.4h153.4v-818.2V-2182h-151.4h-151.3l-345.7,558.4l-343.6,556.4l-6.1-556.4l-4.1-558.4h-153.4h-153.4v818.2v818.2h149.3h149.3L7289.6-1112.3z"/></g></g>
</svg>