<?xml version="1.0" encoding="utf-8"?>
<!-- Svg Vector Icons : http://www.onlinewebfonts.com/icon -->
<!DOCTYPE svg PUBLIC "-//W3C//DTD SVG 1.1//EN" "http://www.w3.org/Graphics/SVG/1.1/DTD/svg11.dtd">
<svg version="1.1" xmlns="http://www.w3.org/2000/svg" xmlns:xlink="http://www.w3.org/1999/xlink" x="0px" y="0px" viewBox="0 0 1000 1000" enable-background="new 0 0 1000 1000" xml:space="preserve">
<metadata> Svg Vector Icons : http://www.onlinewebfonts.com/icon </metadata>
<g><g transform="translate(0.000000,511.000000) scale(0.100000,-0.100000)"><path d="M3591.5,4995.3c-222.9-45-617.7-282.3-1043.2-627.9c-276.1-225-924.5-873.4-1149.5-1149.5c-362-445.9-587-824.3-630-1065.7c-14.3-77.7-18.4-1075.9-14.3-2986.3c4.1-2697.9,8.2-2879.9,43-2994.5c106.4-353.8,374.3-675,687.3-824.3c306.8-145.2,135-137,2873.8-137c2337.9,0,2483.1,2,2607.9,36.8c439.8,124.8,816.1,499.1,928.6,924.5c18.4,67.5,38.8,245.4,47,394.8l12.3,270h-327.3h-329.3l-8.2-259.8c-6.1-225-14.3-274.1-55.2-353.9c-63.4-124.8-175.9-237.2-298.6-302.7l-102.3-55.2l-2462.7-6.1l-2462.7-4.1l-114.5,51.1c-141.1,65.5-253.6,171.8-325.2,306.8l-55.2,102.3L1407-809.6l-4.1,2877.9l597.3,10.2c666.8,10.2,732.3,20.5,987.9,153.4c194.3,100.2,445.9,351.8,546.1,546.1c133,255.7,143.2,321.1,153.4,987.9l10.2,597.3l1568.8-4.1l1566.8-6.1l102.3-55.2c135-71.6,241.4-184.1,304.8-323.2l53.2-112.5v-1712v-1714h327.3h329.3l-8.2,1744.7c-6.1,1937,2,1812.2-149.3,2121.1c-100.2,202.5-345.7,450-550.2,556.4c-296.6,153.4-204.6,147.3-1973.8,151.4C4389.2,5011.7,3642.6,5005.5,3591.5,4995.3z"/><path d="M3204.9,76.1c-143.2-38.8-227-90-327.3-204.5c-153.4-175.9-155.5-184.1-155.5-1235.4c0-1090.2-2.1-1073.8,192.3-1270.2c210.7-208.6-65.4-192.3,3070.1-192.3c3135.6,0,2859.5-16.4,3070.1,192.3c194.3,196.4,192.3,180,192.3,1270.2S9249-290,9054.7-93.7C8844.1,117,9128.4,98.6,6025.5,102.7C3699.9,106.8,3299,102.7,3204.9,76.1z M3791.9-652.1c22.5-59.3,120.7-341.6,220.9-627.9c98.2-286.4,184.1-511.4,188.2-501.1c2,10.2,104.3,290.4,225,621.8l218.9,603.4l180,6.1l178,6.1v-820.2V-2182h-143.2h-143.2l-4.1,540l-6.1,542l-196.4-535.9l-196.4-535.9h-130.9h-130.9l-194.3,546.1l-194.3,546.1l-6.1-552.3l-4.1-550.2h-143.2h-143.2v818.2v818.2h192.3h194.3L3791.9-652.1z M6639.1-1046.8v-499.1l118.6-6.1l116.6-6.1v-122.7v-122.7l-116.6-6.1l-118.6-6.2v-182V-2182h-153.4h-153.4v184.1v184.1h-409.1h-411.1l6.1,120.7l6.1,120.7l429.5,513.4l429.5,513.4h128.9h126.8V-1046.8z M8279.5-1329.1c165.7-429.5,306.8-797.7,315-818.2c12.3-32.7,0-36.8-137-30.7l-151.4,6.1l-69.6,200.4l-71.6,198.4h-310.9h-313l-65.4-204.5l-67.5-204.5h-141.1c-104.3,0-139.1,6.1-132.9,26.6c4.1,12.3,137.1,380.4,294.5,816.1l284.3,793.6h133h132.9L8279.5-1329.1z"/><path d="M6113.4-1284.1l-206.6-253.6l204.5-6.1c112.5-2.1,208.6-2.1,214.8,2c4.1,4.1,4.1,122.7,2,259.8l-6.1,251.6L6113.4-1284.1z"/><path d="M7737.5-1206.4c-53.2-159.6-96.2-298.6-96.2-306.8c0-8.2,98.2-14.3,216.8-14.3c165.7,0,214.8,6.1,208.6,26.6c-6.1,12.3-55.2,151.4-108.4,306.8c-53.2,153.4-104.3,280.2-110.5,280.2C7839.8-913.9,7790.7-1044.8,7737.5-1206.4z"/></g></g>
</svg>